<svg width="24.000000" height="24.000000" viewBox="0 0 24 24" fill="none" xmlns="http://www.w3.org/2000/svg" xmlns:xlink="http://www.w3.org/1999/xlink">
	<desc>
			Created with Pixso.
	</desc>
	<defs/>
	<path d="M21 11.5C21 11.22 20.77 11 20.5 11L4.5 11C4.22 11 4 11.22 4 11.5C4 11.77 4.22 12 4.5 12L20.5 12C20.77 12 21 11.77 21 11.5Z" fill="#333333" fill-opacity="1.000000" fill-rule="evenodd"/>
	<path d="M8.35 7.64C8.15 7.45 7.84 7.45 7.64 7.64L3.79 11.5L7.64 15.35C7.84 15.54 8.15 15.54 8.35 15.35C8.54 15.15 8.54 14.84 8.35 14.64L5.2 11.5L8.35 8.35C8.54 8.15 8.54 7.84 8.35 7.64Z" fill="#333333" fill-opacity="1.000000" fill-rule="evenodd"/>
</svg>
