<svg width="24.000000" height="24.000000" viewBox="0 0 24 24" fill="none" xmlns="http://www.w3.org/2000/svg" xmlns:xlink="http://www.w3.org/1999/xlink">
	<desc>
			Created with Pixso.
	</desc>
	<defs/>
	<path d="M2.93 11.5C2.93 11.22 3.15 11 3.43 11L19.43 11C19.71 11 19.93 11.22 19.93 11.5C19.93 11.77 19.71 12 19.43 12L3.43 12C3.15 12 2.93 11.77 2.93 11.5Z" fill="#333333" fill-opacity="1.000000" fill-rule="evenodd"/>
	<path d="M15.58 7.64C15.77 7.45 16.09 7.45 16.28 7.64L20.14 11.5L16.28 15.35C16.09 15.54 15.77 15.54 15.58 15.35C15.38 15.15 15.38 14.84 15.58 14.64L18.72 11.5L15.58 8.35C15.38 8.15 15.38 7.84 15.58 7.64Z" fill="#333333" fill-opacity="1.000000" fill-rule="evenodd"/>
</svg>
