<svg xmlns="http://www.w3.org/2000/svg" xmlns:xlink="http://www.w3.org/1999/xlink"><symbol id="arrow-left" viewBox="0 0 24 24"><g><path d="M21 11.5c0-.28-.23-.5-.5-.5h-16c-.28 0-.5.22-.5.5 0 .27.22.5.5.5h16c.27 0 .5-.23.5-.5Z" fill-rule="evenodd"/><path d="M8.35 7.64a.513.513 0 0 0-.71 0L3.79 11.5l3.85 3.85c.2.19.51.19.71 0 .19-.2.19-.51 0-.71L5.2 11.5l3.15-3.15c.19-.2.19-.51 0-.71Z" fill-rule="evenodd"/></g></symbol><symbol id="arrow-right" viewBox="0 0 24 24"><g><path d="M2.93 11.5c0-.28.22-.5.5-.5h16c.28 0 .5.22.5.5 0 .27-.22.5-.5.5h-16c-.28 0-.5-.23-.5-.5Z" fill-rule="evenodd"/><path d="M15.58 7.64c.19-.19.51-.19.7 0l3.86 3.86-3.86 3.85c-.19.19-.51.19-.7 0-.2-.2-.2-.51 0-.71l3.14-3.14-3.14-3.15c-.2-.2-.2-.51 0-.71Z" fill-rule="evenodd"/></g></symbol><symbol id="check" viewBox="0 0 13 9"><g><path d="M1.17 3.43c-.38-.35-.98-.35-1.36 0-.37.34-.37.91 0 1.26L3.2 7.84a1 1 0 0 0 1.35 0L12.18.67c.37-.35.37-.91-.01-1.26-.37-.35-.98-.34-1.35.01L3.87 5.94l-2.7-2.51Z"/></g></symbol></svg>