<svg width="20.000000" height="20.000000" viewBox="0 0 20 20" fill="none" xmlns="http://www.w3.org/2000/svg" xmlns:xlink="http://www.w3.org/1999/xlink">
	<desc>
			Created with Pixso.
	</desc>
	<defs>
		<clipPath id="clip0_106">
			<rect id="Linked In" width="20.000000" height="20.000000" fill="white" fill-opacity="0"/>
		</clipPath>
	</defs>
	<rect id="Linked In" width="20.000000" height="20.000000" fill="#FFFFFF" fill-opacity="0"/>
	<g clip-path="url(#clip0_106)">
		<path id="Shape" d="M18.512 19.0129L1.48798 19.0129C0.671997 19.0129 0.0109863 18.434 0.0109863 17.72L0.0109863 2.28198C0.0109863 1.56897 0.671997 0.98999 1.48798 0.98999L18.512 0.98999C19.327 0.98999 19.988 1.56897 19.988 2.28198L19.988 17.72C19.988 18.434 19.327 19.0129 18.512 19.0129ZM3.29999 5.39099C3.29999 4.59204 3.957 3.98499 4.96399 3.98499C5.97 3.98499 6.59 4.59204 6.60797 5.39099C6.60797 6.17102 5.97 6.797 4.944 6.797L4.92499 6.797C3.93799 6.797 3.29999 6.17102 3.29999 5.39099ZM17.023 11.379C17.023 8.87903 15.571 7.71594 13.636 7.71594C12.074 7.71594 11.376 8.505 10.985 9.05994L10.985 7.90698L8.043 7.90698C8.08197 8.67102 8.043 16.0439 8.043 16.0439L10.985 16.0439L10.985 11.5C10.985 11.2579 11.004 11.014 11.082 10.8409C11.294 10.355 11.779 9.85205 12.591 9.85205C13.656 9.85205 14.081 10.598 14.081 11.692L14.081 16.0439L17.023 16.0439L17.023 11.379ZM10.985 9.05994L10.985 9.08704L10.965 9.08704C10.971 9.078 10.979 9.06897 10.985 9.05994ZM3.47299 16.0439L6.41498 16.0439L6.41498 7.90698L3.47299 7.90698L3.47299 16.0439Z" clip-rule="evenodd" fill="#FFFFFF" fill-opacity="1.000000" fill-rule="evenodd"/>
	</g>
</svg>
